<svg width="24" height="24" viewBox="0 0 24 24" fill="none" xmlns="http://www.w3.org/2000/svg">
<g opacity="0.5">
<path d="M17 9H9V7C9 6.2 9.3 5.5 9.9 4.9C11.1 3.7 13 3.7 14.1 4.9C14.5 5.3 14.7 5.8 14.9 6.3C15 6.8 15.6 7.1 16.1 7C16.6 6.9 17 6.3 16.8 5.8C16.6 4.9 16.1 4.1 15.5 3.5C14.6 2.5 13.3 2 12 2C9.2 2 7 4.2 7 7V9C5.3 9 4 10.3 4 12V19C4 20.7 5.3 22 7 22H17C18.7 22 20 20.7 20 19V12C20 10.3 18.7 9 17 9ZM13.1 15.5L13 15.6V17C13 17.6 12.6 18 12 18C11.4 18 11 17.6 11 17V15.6C10.4 15 10.3 14.1 10.9 13.5C11.5 12.9 12.4 12.8 13 13.4C13.6 13.9 13.7 14.9 13.1 15.5Z" fill="white"/>
</g>
</svg>
